<mxfile host="app.diagrams.net" agent="Mozilla/5.0 (Windows NT 10.0; Win64; x64) AppleWebKit/537.36 (KHTML, like Gecko) Chrome/132.0.0.0 Safari/537.36" version="26.0.4">
  <diagram name="Halaman-1" id="IcbqS5227hInG9LYeoXL">
    <mxGraphModel dx="1050" dy="565" grid="0" gridSize="10" guides="1" tooltips="1" connect="1" arrows="1" fold="1" page="1" pageScale="1" pageWidth="827" pageHeight="1169" math="0" shadow="0">
      <root>
        <mxCell id="0" />
        <mxCell id="1" parent="0" />
        <mxCell id="wpgOmfGG7yc3kjbvclSd-2" value="&lt;font style=&quot;font-size: 15px;&quot;&gt;1&lt;/font&gt;" style="ellipse;whiteSpace=wrap;html=1;" vertex="1" parent="1">
          <mxGeometry x="89" y="445" width="44" height="45" as="geometry" />
        </mxCell>
        <mxCell id="wpgOmfGG7yc3kjbvclSd-6" value="4" style="ellipse;whiteSpace=wrap;html=1;" vertex="1" parent="1">
          <mxGeometry x="282" y="578" width="44" height="45" as="geometry" />
        </mxCell>
        <mxCell id="wpgOmfGG7yc3kjbvclSd-7" value="3" style="ellipse;whiteSpace=wrap;html=1;" vertex="1" parent="1">
          <mxGeometry x="278" y="448" width="44" height="45" as="geometry" />
        </mxCell>
        <mxCell id="wpgOmfGG7yc3kjbvclSd-8" value="2" style="ellipse;whiteSpace=wrap;html=1;" vertex="1" parent="1">
          <mxGeometry x="282" y="380" width="44" height="45" as="geometry" />
        </mxCell>
        <mxCell id="wpgOmfGG7yc3kjbvclSd-9" value="" style="endArrow=classic;html=1;rounded=0;exitX=1;exitY=0.5;exitDx=0;exitDy=0;fillColor=#dae8fc;strokeColor=#1A1A1A;" edge="1" parent="1" source="wpgOmfGG7yc3kjbvclSd-2">
          <mxGeometry width="50" height="50" relative="1" as="geometry">
            <mxPoint x="188" y="509" as="sourcePoint" />
            <mxPoint x="285" y="412" as="targetPoint" />
          </mxGeometry>
        </mxCell>
        <mxCell id="wpgOmfGG7yc3kjbvclSd-10" value="" style="endArrow=classic;html=1;rounded=0;exitX=1;exitY=0.5;exitDx=0;exitDy=0;entryX=0;entryY=0.5;entryDx=0;entryDy=0;fillColor=#b1ddf0;strokeColor=#1A1A1A;" edge="1" parent="1" source="wpgOmfGG7yc3kjbvclSd-2" target="wpgOmfGG7yc3kjbvclSd-7">
          <mxGeometry width="50" height="50" relative="1" as="geometry">
            <mxPoint x="81" y="478" as="sourcePoint" />
            <mxPoint x="292" y="424" as="targetPoint" />
          </mxGeometry>
        </mxCell>
        <mxCell id="wpgOmfGG7yc3kjbvclSd-11" value="" style="endArrow=classic;html=1;rounded=0;exitX=1;exitY=0.5;exitDx=0;exitDy=0;entryX=0;entryY=0.5;entryDx=0;entryDy=0;fillColor=#b1ddf0;strokeColor=#1A1A1A;" edge="1" parent="1" source="wpgOmfGG7yc3kjbvclSd-2" target="wpgOmfGG7yc3kjbvclSd-6">
          <mxGeometry width="50" height="50" relative="1" as="geometry">
            <mxPoint x="91" y="488" as="sourcePoint" />
            <mxPoint x="302" y="434" as="targetPoint" />
          </mxGeometry>
        </mxCell>
        <mxCell id="wpgOmfGG7yc3kjbvclSd-12" value="A-2" style="text;strokeColor=none;align=center;fillColor=none;html=1;verticalAlign=middle;whiteSpace=wrap;rounded=0;" vertex="1" parent="1">
          <mxGeometry x="166.00001220703126" y="409.00001220703126" width="60" height="30" as="geometry" />
        </mxCell>
        <mxCell id="wpgOmfGG7yc3kjbvclSd-13" value="B-2" style="text;strokeColor=none;align=center;fillColor=none;html=1;verticalAlign=middle;whiteSpace=wrap;rounded=0;" vertex="1" parent="1">
          <mxGeometry x="170.00001220703126" y="445.00001220703126" width="60" height="30" as="geometry" />
        </mxCell>
        <mxCell id="wpgOmfGG7yc3kjbvclSd-14" value="C-6" style="text;strokeColor=none;align=center;fillColor=none;html=1;verticalAlign=middle;whiteSpace=wrap;rounded=0;" vertex="1" parent="1">
          <mxGeometry x="170.00001220703126" y="527.0000122070312" width="60" height="30" as="geometry" />
        </mxCell>
        <mxCell id="wpgOmfGG7yc3kjbvclSd-15" value="" style="endArrow=classic;html=1;rounded=0;fillColor=#f8cecc;strokeColor=#000000;entryX=0;entryY=0.5;entryDx=0;entryDy=0;" edge="1" parent="1" target="wpgOmfGG7yc3kjbvclSd-16">
          <mxGeometry width="50" height="50" relative="1" as="geometry">
            <mxPoint x="326" y="400" as="sourcePoint" />
            <mxPoint x="401" y="398" as="targetPoint" />
          </mxGeometry>
        </mxCell>
        <mxCell id="wpgOmfGG7yc3kjbvclSd-16" value="6" style="ellipse;whiteSpace=wrap;html=1;" vertex="1" parent="1">
          <mxGeometry x="409" y="380" width="44" height="45" as="geometry" />
        </mxCell>
        <mxCell id="wpgOmfGG7yc3kjbvclSd-17" value="D-4" style="text;strokeColor=none;align=center;fillColor=none;html=1;verticalAlign=middle;whiteSpace=wrap;rounded=0;" vertex="1" parent="1">
          <mxGeometry x="338.50001220703126" y="380.00001220703126" width="60" height="30" as="geometry" />
        </mxCell>
        <mxCell id="wpgOmfGG7yc3kjbvclSd-19" value="E-1" style="text;strokeColor=none;align=center;fillColor=none;html=1;verticalAlign=middle;whiteSpace=wrap;rounded=0;" vertex="1" parent="1">
          <mxGeometry x="335.00001220703126" y="448.00001220703126" width="60" height="30" as="geometry" />
        </mxCell>
        <mxCell id="wpgOmfGG7yc3kjbvclSd-21" value="" style="endArrow=classic;html=1;rounded=0;fillColor=#dae8fc;strokeColor=#1A1A1A;entryX=0.077;entryY=0.369;entryDx=0;entryDy=0;entryPerimeter=0;gradientColor=#7ea6e0;" edge="1" parent="1">
          <mxGeometry width="50" height="50" relative="1" as="geometry">
            <mxPoint x="322" y="471.5" as="sourcePoint" />
            <mxPoint x="408.3879999999999" y="473.605" as="targetPoint" />
          </mxGeometry>
        </mxCell>
        <mxCell id="wpgOmfGG7yc3kjbvclSd-24" value="5" style="ellipse;whiteSpace=wrap;html=1;" vertex="1" parent="1">
          <mxGeometry x="409" y="457" width="44" height="45" as="geometry" />
        </mxCell>
        <mxCell id="wpgOmfGG7yc3kjbvclSd-26" value="" style="endArrow=classic;html=1;rounded=0;fillColor=#1ba1e2;strokeColor=#000000;entryX=0;entryY=0;entryDx=0;entryDy=0;" edge="1" parent="1">
          <mxGeometry width="50" height="50" relative="1" as="geometry">
            <mxPoint x="322" y="472" as="sourcePoint" />
            <mxPoint x="417.2698532817128" y="557.7698532817128" as="targetPoint" />
          </mxGeometry>
        </mxCell>
        <mxCell id="wpgOmfGG7yc3kjbvclSd-28" value="F-5" style="text;strokeColor=none;align=center;fillColor=none;html=1;verticalAlign=middle;whiteSpace=wrap;rounded=0;" vertex="1" parent="1">
          <mxGeometry x="349.00001220703126" y="493.00001220703126" width="60" height="30" as="geometry" />
        </mxCell>
        <mxCell id="wpgOmfGG7yc3kjbvclSd-30" value="" style="endArrow=classic;html=1;rounded=0;exitX=1;exitY=1;exitDx=0;exitDy=0;fillColor=#1ba1e2;strokeColor=#000000;entryX=0;entryY=0;entryDx=0;entryDy=0;" edge="1" parent="1" source="wpgOmfGG7yc3kjbvclSd-6">
          <mxGeometry width="50" height="50" relative="1" as="geometry">
            <mxPoint x="332" y="614" as="sourcePoint" />
            <mxPoint x="417.2698532817128" y="557.7698532817128" as="targetPoint" />
          </mxGeometry>
        </mxCell>
        <mxCell id="wpgOmfGG7yc3kjbvclSd-31" value="G-5" style="text;strokeColor=none;align=center;fillColor=none;html=1;verticalAlign=middle;whiteSpace=wrap;rounded=0;" vertex="1" parent="1">
          <mxGeometry x="338.50001220703126" y="585.5000122070312" width="60" height="30" as="geometry" />
        </mxCell>
        <mxCell id="wpgOmfGG7yc3kjbvclSd-34" value="" style="endArrow=classic;html=1;rounded=0;fillColor=#1ba1e2;strokeColor=#006EAF;" edge="1" parent="1">
          <mxGeometry width="50" height="50" relative="1" as="geometry">
            <mxPoint x="453" y="478" as="sourcePoint" />
            <mxPoint x="595" y="446" as="targetPoint" />
          </mxGeometry>
        </mxCell>
        <mxCell id="wpgOmfGG7yc3kjbvclSd-35" value="H-1" style="text;strokeColor=none;align=center;fillColor=none;html=1;verticalAlign=middle;whiteSpace=wrap;rounded=0;" vertex="1" parent="1">
          <mxGeometry x="493.0000122070312" y="463.00001220703126" width="60" height="30" as="geometry" />
        </mxCell>
        <mxCell id="wpgOmfGG7yc3kjbvclSd-36" value="8" style="ellipse;whiteSpace=wrap;html=1;" vertex="1" parent="1">
          <mxGeometry x="595" y="418" width="44" height="45" as="geometry" />
        </mxCell>
        <mxCell id="wpgOmfGG7yc3kjbvclSd-37" value="" style="endArrow=classic;html=1;rounded=0;entryX=0;entryY=0.5;entryDx=0;entryDy=0;exitX=1;exitY=0.5;exitDx=0;exitDy=0;fillColor=#1ba1e2;strokeColor=#006EAF;" edge="1" parent="1" source="wpgOmfGG7yc3kjbvclSd-16" target="wpgOmfGG7yc3kjbvclSd-36">
          <mxGeometry width="50" height="50" relative="1" as="geometry">
            <mxPoint x="453" y="409" as="sourcePoint" />
            <mxPoint x="503" y="359" as="targetPoint" />
          </mxGeometry>
        </mxCell>
        <mxCell id="wpgOmfGG7yc3kjbvclSd-38" value="I-2" style="text;strokeColor=none;align=center;fillColor=none;html=1;verticalAlign=middle;whiteSpace=wrap;rounded=0;" vertex="1" parent="1">
          <mxGeometry x="489.0000122070312" y="395.00001220703126" width="60" height="30" as="geometry" />
        </mxCell>
        <mxCell id="wpgOmfGG7yc3kjbvclSd-48" value="" style="endArrow=classic;html=1;rounded=0;entryX=0.5;entryY=0;entryDx=0;entryDy=0;dashed=1;" edge="1" parent="1" target="wpgOmfGG7yc3kjbvclSd-6">
          <mxGeometry width="50" height="50" relative="1" as="geometry">
            <mxPoint x="304" y="495" as="sourcePoint" />
            <mxPoint x="380" y="500" as="targetPoint" />
          </mxGeometry>
        </mxCell>
        <mxCell id="wpgOmfGG7yc3kjbvclSd-49" value="7" style="ellipse;whiteSpace=wrap;html=1;" vertex="1" parent="1">
          <mxGeometry x="418" y="535" width="44" height="45" as="geometry" />
        </mxCell>
        <mxCell id="wpgOmfGG7yc3kjbvclSd-50" value="" style="ellipse;whiteSpace=wrap;html=1;" vertex="1" parent="1">
          <mxGeometry x="568" y="535" width="44" height="45" as="geometry" />
        </mxCell>
        <mxCell id="wpgOmfGG7yc3kjbvclSd-51" value="J-4" style="text;strokeColor=none;align=center;fillColor=none;html=1;verticalAlign=middle;whiteSpace=wrap;rounded=0;" vertex="1" parent="1">
          <mxGeometry x="480.0000122070312" y="533.0000122070312" width="60" height="30" as="geometry" />
        </mxCell>
        <mxCell id="wpgOmfGG7yc3kjbvclSd-52" value="" style="endArrow=classic;html=1;rounded=0;entryX=0;entryY=0.5;entryDx=0;entryDy=0;fillColor=#a20025;strokeColor=#000000;" edge="1" parent="1" target="wpgOmfGG7yc3kjbvclSd-50">
          <mxGeometry width="50" height="50" relative="1" as="geometry">
            <mxPoint x="462" y="557" as="sourcePoint" />
            <mxPoint x="512" y="507" as="targetPoint" />
          </mxGeometry>
        </mxCell>
        <mxCell id="wpgOmfGG7yc3kjbvclSd-53" value="" style="endArrow=classic;html=1;rounded=0;dashed=1;" edge="1" parent="1">
          <mxGeometry width="50" height="50" relative="1" as="geometry">
            <mxPoint x="431" y="453" as="sourcePoint" />
            <mxPoint x="431" y="425" as="targetPoint" />
          </mxGeometry>
        </mxCell>
        <mxCell id="wpgOmfGG7yc3kjbvclSd-55" value="" style="ellipse;whiteSpace=wrap;html=1;" vertex="1" parent="1">
          <mxGeometry x="694" y="425" width="44" height="45" as="geometry" />
        </mxCell>
        <mxCell id="wpgOmfGG7yc3kjbvclSd-56" value="" style="endArrow=classic;html=1;rounded=0;fillColor=#a20025;strokeColor=#6F0000;entryX=0;entryY=0.5;entryDx=0;entryDy=0;" edge="1" parent="1">
          <mxGeometry width="50" height="50" relative="1" as="geometry">
            <mxPoint x="639" y="443" as="sourcePoint" />
            <mxPoint x="695" y="443.5" as="targetPoint" />
          </mxGeometry>
        </mxCell>
        <mxCell id="wpgOmfGG7yc3kjbvclSd-57" value="K-2" style="text;strokeColor=none;align=center;fillColor=none;html=1;verticalAlign=middle;whiteSpace=wrap;rounded=0;" vertex="1" parent="1">
          <mxGeometry x="639.0000122070312" y="418.00001220703126" width="60" height="30" as="geometry" />
        </mxCell>
      </root>
    </mxGraphModel>
  </diagram>
</mxfile>
